<mxfile host="Electron" modified="2024-02-12T14:11:33.420Z" agent="Mozilla/5.0 (Windows NT 10.0; Win64; x64) AppleWebKit/537.36 (KHTML, like Gecko) draw.io/23.0.2 Chrome/120.0.6099.109 Electron/28.1.0 Safari/537.36" etag="06M3mXkSLXPWQQZ6Fx9U" version="23.0.2" type="device" pages="4">
  <diagram name="Аунтификация" id="ySiCZIDo2Rj9p5F1xZij">
    <mxGraphModel dx="1434" dy="836" grid="1" gridSize="10" guides="1" tooltips="1" connect="1" arrows="1" fold="1" page="1" pageScale="1" pageWidth="900" pageHeight="1600" math="0" shadow="0">
      <root>
        <mxCell id="0" />
        <mxCell id="1" parent="0" />
        <mxCell id="jyLG3yJGlukyr1ifa2qQ-2" value="" style="verticalLabelPosition=bottom;shadow=0;dashed=0;align=center;html=1;verticalAlign=top;strokeWidth=1;shape=mxgraph.mockup.graphics.simpleIcon;strokeColor=#999999;" parent="1" vertex="1">
          <mxGeometry x="245" y="210" width="410" height="410" as="geometry" />
        </mxCell>
        <mxCell id="jyLG3yJGlukyr1ifa2qQ-3" value="&lt;span style=&quot;font-size: 66px;&quot;&gt;Логотип&lt;/span&gt;" style="text;strokeColor=none;align=center;fillColor=none;html=1;verticalAlign=middle;whiteSpace=wrap;rounded=0;" parent="1" vertex="1">
          <mxGeometry x="420" y="400" width="60" height="30" as="geometry" />
        </mxCell>
        <mxCell id="jyLG3yJGlukyr1ifa2qQ-6" value="********" style="strokeWidth=1;shadow=0;dashed=0;align=center;html=1;shape=mxgraph.mockup.forms.pwField;strokeColor=#999999;mainText=;align=left;fontColor=#666666;fontSize=60;spacingLeft=3;" parent="1" vertex="1">
          <mxGeometry x="120" y="1110" width="660" height="110" as="geometry" />
        </mxCell>
        <mxCell id="jyLG3yJGlukyr1ifa2qQ-7" value="Логин" style="strokeWidth=1;shadow=0;dashed=0;align=center;html=1;shape=mxgraph.mockup.forms.pwField;strokeColor=#999999;mainText=;align=left;fontColor=#666666;fontSize=60;spacingLeft=3;" parent="1" vertex="1">
          <mxGeometry x="120" y="910" width="660" height="110" as="geometry" />
        </mxCell>
        <mxCell id="jyLG3yJGlukyr1ifa2qQ-8" value="&lt;font style=&quot;font-size: 60px;&quot;&gt;Войти&lt;/font&gt;" style="strokeWidth=1;shadow=0;dashed=0;align=center;html=1;shape=mxgraph.mockup.buttons.button;strokeColor=#666666;fontColor=#ffffff;mainText=;buttonStyle=round;fontSize=17;fontStyle=1;fillColor=#008cff;whiteSpace=wrap;" parent="1" vertex="1">
          <mxGeometry x="120" y="1330" width="660" height="110" as="geometry" />
        </mxCell>
      </root>
    </mxGraphModel>
  </diagram>
  <diagram id="TamIpbKGmUBPfyhQq0Ri" name="Список Пациентов">
    <mxGraphModel dx="6270" dy="4180" grid="1" gridSize="10" guides="1" tooltips="1" connect="1" arrows="1" fold="1" page="1" pageScale="1" pageWidth="900" pageHeight="1600" math="0" shadow="0">
      <root>
        <mxCell id="0" />
        <mxCell id="1" parent="0" />
        <mxCell id="nPZ27QrUlWKUypArkr3B-47" value="Search" style="strokeWidth=1;shadow=0;dashed=0;align=center;html=1;shape=mxgraph.mockup.forms.searchBox;strokeColor=#999999;mainText=;strokeColor2=#008cff;fontColor=#666666;fontSize=60;align=left;spacingLeft=3;whiteSpace=wrap;container=1;" parent="1" vertex="1">
          <mxGeometry x="950" y="30" width="800" height="130" as="geometry" />
        </mxCell>
        <mxCell id="nPZ27QrUlWKUypArkr3B-49" value="" style="rounded=0;whiteSpace=wrap;html=1;" parent="1" vertex="1">
          <mxGeometry x="950" y="200" width="800" height="140" as="geometry" />
        </mxCell>
        <mxCell id="nPZ27QrUlWKUypArkr3B-48" value="" style="verticalLabelPosition=bottom;shadow=0;dashed=0;align=center;html=1;verticalAlign=top;strokeWidth=1;shape=mxgraph.mockup.containers.userMale;strokeColor=#666666;strokeColor2=#008cff;" parent="1" vertex="1">
          <mxGeometry x="970" y="220" width="100" height="100" as="geometry" />
        </mxCell>
        <mxCell id="nPZ27QrUlWKUypArkr3B-50" value="&lt;font style=&quot;font-size: 44px;&quot;&gt;Имя Фамилия Отчество&lt;/font&gt;" style="text;html=1;strokeColor=none;fillColor=none;align=center;verticalAlign=middle;whiteSpace=wrap;rounded=0;" parent="1" vertex="1">
          <mxGeometry x="1070" y="220" width="560" height="30" as="geometry" />
        </mxCell>
        <mxCell id="nPZ27QrUlWKUypArkr3B-51" value="Просмотреть" style="strokeWidth=1;shadow=0;dashed=0;align=center;html=1;shape=mxgraph.mockup.buttons.button;strokeColor=#666666;fontColor=#ffffff;mainText=;buttonStyle=round;fontSize=17;fontStyle=1;fillColor=#008cff;whiteSpace=wrap;" parent="1" vertex="1">
          <mxGeometry x="1620" y="230" width="110" height="80" as="geometry" />
        </mxCell>
        <mxCell id="nPZ27QrUlWKUypArkr3B-52" value="" style="rounded=0;whiteSpace=wrap;html=1;" parent="1" vertex="1">
          <mxGeometry x="950" y="370" width="800" height="140" as="geometry" />
        </mxCell>
        <mxCell id="nPZ27QrUlWKUypArkr3B-53" value="" style="verticalLabelPosition=bottom;shadow=0;dashed=0;align=center;html=1;verticalAlign=top;strokeWidth=1;shape=mxgraph.mockup.containers.userMale;strokeColor=#666666;strokeColor2=#008cff;" parent="1" vertex="1">
          <mxGeometry x="970" y="390" width="100" height="100" as="geometry" />
        </mxCell>
        <mxCell id="nPZ27QrUlWKUypArkr3B-54" value="&lt;font style=&quot;font-size: 44px;&quot;&gt;Имя Фамилия Отчество&lt;/font&gt;" style="text;html=1;strokeColor=none;fillColor=none;align=center;verticalAlign=middle;whiteSpace=wrap;rounded=0;" parent="1" vertex="1">
          <mxGeometry x="1070" y="390" width="560" height="30" as="geometry" />
        </mxCell>
        <mxCell id="nPZ27QrUlWKUypArkr3B-55" value="Просмотреть" style="strokeWidth=1;shadow=0;dashed=0;align=center;html=1;shape=mxgraph.mockup.buttons.button;strokeColor=#666666;fontColor=#ffffff;mainText=;buttonStyle=round;fontSize=17;fontStyle=1;fillColor=#008cff;whiteSpace=wrap;" parent="1" vertex="1">
          <mxGeometry x="1620" y="400" width="110" height="80" as="geometry" />
        </mxCell>
        <mxCell id="nPZ27QrUlWKUypArkr3B-56" value="" style="rounded=0;whiteSpace=wrap;html=1;" parent="1" vertex="1">
          <mxGeometry x="950" y="540" width="800" height="140" as="geometry" />
        </mxCell>
        <mxCell id="nPZ27QrUlWKUypArkr3B-57" value="" style="verticalLabelPosition=bottom;shadow=0;dashed=0;align=center;html=1;verticalAlign=top;strokeWidth=1;shape=mxgraph.mockup.containers.userMale;strokeColor=#666666;strokeColor2=#008cff;" parent="1" vertex="1">
          <mxGeometry x="970" y="560" width="100" height="100" as="geometry" />
        </mxCell>
        <mxCell id="nPZ27QrUlWKUypArkr3B-58" value="&lt;font style=&quot;font-size: 44px;&quot;&gt;Имя Фамилия Отчество&lt;/font&gt;" style="text;html=1;strokeColor=none;fillColor=none;align=center;verticalAlign=middle;whiteSpace=wrap;rounded=0;" parent="1" vertex="1">
          <mxGeometry x="1070" y="560" width="560" height="30" as="geometry" />
        </mxCell>
        <mxCell id="nPZ27QrUlWKUypArkr3B-59" value="Просмотреть" style="strokeWidth=1;shadow=0;dashed=0;align=center;html=1;shape=mxgraph.mockup.buttons.button;strokeColor=#666666;fontColor=#ffffff;mainText=;buttonStyle=round;fontSize=17;fontStyle=1;fillColor=#008cff;whiteSpace=wrap;" parent="1" vertex="1">
          <mxGeometry x="1620" y="570" width="110" height="80" as="geometry" />
        </mxCell>
        <mxCell id="nPZ27QrUlWKUypArkr3B-60" value="" style="rounded=0;whiteSpace=wrap;html=1;" parent="1" vertex="1">
          <mxGeometry x="950" y="710" width="800" height="140" as="geometry" />
        </mxCell>
        <mxCell id="nPZ27QrUlWKUypArkr3B-61" value="" style="verticalLabelPosition=bottom;shadow=0;dashed=0;align=center;html=1;verticalAlign=top;strokeWidth=1;shape=mxgraph.mockup.containers.userMale;strokeColor=#666666;strokeColor2=#008cff;" parent="1" vertex="1">
          <mxGeometry x="970" y="730" width="100" height="100" as="geometry" />
        </mxCell>
        <mxCell id="nPZ27QrUlWKUypArkr3B-62" value="&lt;font style=&quot;font-size: 44px;&quot;&gt;Имя Фамилия Отчество&lt;/font&gt;" style="text;html=1;strokeColor=none;fillColor=none;align=center;verticalAlign=middle;whiteSpace=wrap;rounded=0;" parent="1" vertex="1">
          <mxGeometry x="1070" y="730" width="560" height="30" as="geometry" />
        </mxCell>
        <mxCell id="nPZ27QrUlWKUypArkr3B-63" value="Просмотреть" style="strokeWidth=1;shadow=0;dashed=0;align=center;html=1;shape=mxgraph.mockup.buttons.button;strokeColor=#666666;fontColor=#ffffff;mainText=;buttonStyle=round;fontSize=17;fontStyle=1;fillColor=#008cff;whiteSpace=wrap;" parent="1" vertex="1">
          <mxGeometry x="1620" y="740" width="110" height="80" as="geometry" />
        </mxCell>
        <mxCell id="nPZ27QrUlWKUypArkr3B-64" value="" style="rounded=0;whiteSpace=wrap;html=1;" parent="1" vertex="1">
          <mxGeometry x="950" y="880" width="800" height="140" as="geometry" />
        </mxCell>
        <mxCell id="nPZ27QrUlWKUypArkr3B-65" value="" style="verticalLabelPosition=bottom;shadow=0;dashed=0;align=center;html=1;verticalAlign=top;strokeWidth=1;shape=mxgraph.mockup.containers.userMale;strokeColor=#666666;strokeColor2=#008cff;" parent="1" vertex="1">
          <mxGeometry x="970" y="900" width="100" height="100" as="geometry" />
        </mxCell>
        <mxCell id="nPZ27QrUlWKUypArkr3B-66" value="&lt;font style=&quot;font-size: 44px;&quot;&gt;Имя Фамилия Отчество&lt;/font&gt;" style="text;html=1;strokeColor=none;fillColor=none;align=center;verticalAlign=middle;whiteSpace=wrap;rounded=0;" parent="1" vertex="1">
          <mxGeometry x="1070" y="900" width="560" height="30" as="geometry" />
        </mxCell>
        <mxCell id="nPZ27QrUlWKUypArkr3B-67" value="Просмотреть" style="strokeWidth=1;shadow=0;dashed=0;align=center;html=1;shape=mxgraph.mockup.buttons.button;strokeColor=#666666;fontColor=#ffffff;mainText=;buttonStyle=round;fontSize=17;fontStyle=1;fillColor=#008cff;whiteSpace=wrap;" parent="1" vertex="1">
          <mxGeometry x="1620" y="910" width="110" height="80" as="geometry" />
        </mxCell>
        <mxCell id="nPZ27QrUlWKUypArkr3B-68" value="" style="rounded=0;whiteSpace=wrap;html=1;" parent="1" vertex="1">
          <mxGeometry x="950" y="1050" width="800" height="140" as="geometry" />
        </mxCell>
        <mxCell id="nPZ27QrUlWKUypArkr3B-69" value="" style="verticalLabelPosition=bottom;shadow=0;dashed=0;align=center;html=1;verticalAlign=top;strokeWidth=1;shape=mxgraph.mockup.containers.userMale;strokeColor=#666666;strokeColor2=#008cff;" parent="1" vertex="1">
          <mxGeometry x="970" y="1070" width="100" height="100" as="geometry" />
        </mxCell>
        <mxCell id="nPZ27QrUlWKUypArkr3B-70" value="&lt;font style=&quot;font-size: 44px;&quot;&gt;Имя Фамилия Отчество&lt;/font&gt;" style="text;html=1;strokeColor=none;fillColor=none;align=center;verticalAlign=middle;whiteSpace=wrap;rounded=0;" parent="1" vertex="1">
          <mxGeometry x="1070" y="1070" width="560" height="30" as="geometry" />
        </mxCell>
        <mxCell id="nPZ27QrUlWKUypArkr3B-71" value="Просмотреть" style="strokeWidth=1;shadow=0;dashed=0;align=center;html=1;shape=mxgraph.mockup.buttons.button;strokeColor=#666666;fontColor=#ffffff;mainText=;buttonStyle=round;fontSize=17;fontStyle=1;fillColor=#008cff;whiteSpace=wrap;" parent="1" vertex="1">
          <mxGeometry x="1620" y="1080" width="110" height="80" as="geometry" />
        </mxCell>
        <mxCell id="nPZ27QrUlWKUypArkr3B-79" value="" style="endArrow=classic;html=1;rounded=0;strokeWidth=5;" parent="1" edge="1">
          <mxGeometry width="50" height="50" relative="1" as="geometry">
            <mxPoint x="1680" y="250" as="sourcePoint" />
            <mxPoint x="1840" y="250" as="targetPoint" />
          </mxGeometry>
        </mxCell>
        <mxCell id="nPZ27QrUlWKUypArkr3B-80" value="" style="verticalLabelPosition=bottom;shadow=0;dashed=0;align=center;html=1;verticalAlign=top;strokeWidth=1;shape=mxgraph.mockup.containers.userMale;strokeColor=#666666;strokeColor2=#008cff;" parent="1" vertex="1">
          <mxGeometry x="1850" y="199" width="360" height="360" as="geometry" />
        </mxCell>
        <mxCell id="nPZ27QrUlWKUypArkr3B-81" value="&lt;font style=&quot;font-size: 44px;&quot;&gt;Имя Фамилия Отчество&lt;/font&gt;" style="text;html=1;strokeColor=none;fillColor=none;align=center;verticalAlign=middle;whiteSpace=wrap;rounded=0;" parent="1" vertex="1">
          <mxGeometry x="2280" y="199" width="350" height="150" as="geometry" />
        </mxCell>
        <mxCell id="nPZ27QrUlWKUypArkr3B-82" value="&lt;font style=&quot;font-size: 44px;&quot;&gt;Общая информация&lt;/font&gt;" style="text;html=1;strokeColor=none;fillColor=none;align=center;verticalAlign=middle;whiteSpace=wrap;rounded=0;" parent="1" vertex="1">
          <mxGeometry x="1830" y="579" width="450" height="80" as="geometry" />
        </mxCell>
        <mxCell id="nPZ27QrUlWKUypArkr3B-83" value="-Line 1&lt;br&gt;-Line 2&lt;br&gt;-Line 3&lt;br&gt;-Line 4&lt;br&gt;-Line 1&lt;br&gt;-Line 2&lt;br&gt;-Line 3&lt;br&gt;-Line 4&lt;br&gt;-Line 1&lt;br&gt;-Line 2&lt;br&gt;-Line 3&lt;br&gt;-Line 4&lt;br&gt;" style="strokeWidth=1;shadow=0;dashed=0;align=center;html=1;shape=mxgraph.mockup.text.bulletedList;textColor=#666666;mainText=,,,,;textSize=17;bulletStyle=none;strokeColor=none;fillColor=none;align=left;verticalAlign=top;fontSize=44;fontColor=#666666;" parent="1" vertex="1">
          <mxGeometry x="1850" y="664" width="790" height="765" as="geometry" />
        </mxCell>
        <mxCell id="joloTA6rOyIPzkMrVpuG-1" value="&lt;font style=&quot;font-size: 60px;&quot;&gt;Начать приём&lt;/font&gt;" style="strokeWidth=1;shadow=0;dashed=0;align=center;html=1;shape=mxgraph.mockup.buttons.button;strokeColor=#666666;fontColor=#ffffff;mainText=;buttonStyle=round;fontSize=17;fontStyle=1;fillColor=#008cff;whiteSpace=wrap;" parent="1" vertex="1">
          <mxGeometry x="1900" y="1470" width="660" height="110" as="geometry" />
        </mxCell>
        <mxCell id="joloTA6rOyIPzkMrVpuG-2" value="&lt;font style=&quot;font-size: 40px;&quot;&gt;История приёмов&lt;/font&gt;" style="strokeWidth=1;shadow=0;dashed=0;align=center;html=1;shape=mxgraph.mockup.buttons.button;mainText=;buttonStyle=round;fontSize=17;fontStyle=1;whiteSpace=wrap;fillColor=#647687;fontColor=#ffffff;strokeColor=#314354;" parent="1" vertex="1">
          <mxGeometry x="2280" y="399" width="370" height="100" as="geometry" />
        </mxCell>
        <mxCell id="joloTA6rOyIPzkMrVpuG-10" value="" style="strokeColor=#999999;verticalLabelPosition=bottom;shadow=0;dashed=0;verticalAlign=top;strokeWidth=2;html=1;shape=mxgraph.mockup.misc.printIcon;" parent="1" vertex="1">
          <mxGeometry x="2530" y="20" width="130" height="130" as="geometry" />
        </mxCell>
        <mxCell id="joloTA6rOyIPzkMrVpuG-11" value="" style="strokeColor=#999999;verticalLabelPosition=bottom;shadow=0;dashed=0;verticalAlign=top;strokeWidth=2;html=1;shape=mxgraph.mockup.misc.shareIcon;" parent="1" vertex="1">
          <mxGeometry x="2370" y="20" width="130" height="130" as="geometry" />
        </mxCell>
        <mxCell id="joloTA6rOyIPzkMrVpuG-13" value="" style="strokeWidth=1;shadow=0;dashed=0;align=center;html=1;shape=mxgraph.mockup.rrect;rSize=10;fillColor=#ffffff;strokeColor=#666666;" parent="1" vertex="1">
          <mxGeometry x="2800" y="40" width="700" height="169" as="geometry" />
        </mxCell>
        <mxCell id="joloTA6rOyIPzkMrVpuG-14" value="&lt;font style=&quot;font-size: 40px;&quot;&gt;Динамика здоровья&lt;/font&gt;" style="strokeColor=inherit;fillColor=inherit;gradientColor=inherit;strokeWidth=1;shadow=0;dashed=0;align=center;html=1;shape=mxgraph.mockup.rrect;rSize=0;fontSize=17;fontColor=#666666;fontStyle=1;resizeHeight=1;whiteSpace=wrap;" parent="joloTA6rOyIPzkMrVpuG-13" vertex="1">
          <mxGeometry width="350" height="169" relative="1" as="geometry">
            <mxPoint x="350" as="offset" />
          </mxGeometry>
        </mxCell>
        <mxCell id="joloTA6rOyIPzkMrVpuG-17" value="&lt;font style=&quot;font-size: 40px;&quot;&gt;История приёмов пациента&lt;/font&gt;" style="strokeWidth=1;shadow=0;dashed=0;align=center;html=1;shape=mxgraph.mockup.leftButton;rSize=10;fontSize=17;fontColor=#ffffff;fontStyle=1;fillColor=#008cff;strokeColor=#008cff;resizeHeight=1;whiteSpace=wrap;" parent="joloTA6rOyIPzkMrVpuG-13" vertex="1">
          <mxGeometry width="355" height="169" relative="1" as="geometry">
            <mxPoint x="-5" as="offset" />
          </mxGeometry>
        </mxCell>
        <mxCell id="joloTA6rOyIPzkMrVpuG-18" value="" style="rounded=0;whiteSpace=wrap;html=1;" parent="1" vertex="1">
          <mxGeometry x="2750" y="280" width="800" height="140" as="geometry" />
        </mxCell>
        <mxCell id="joloTA6rOyIPzkMrVpuG-20" value="&lt;font style=&quot;font-size: 44px;&quot;&gt;Дата&lt;/font&gt;" style="text;html=1;strokeColor=none;fillColor=none;align=center;verticalAlign=middle;whiteSpace=wrap;rounded=0;" parent="1" vertex="1">
          <mxGeometry x="2750" y="330" width="160" height="30" as="geometry" />
        </mxCell>
        <mxCell id="joloTA6rOyIPzkMrVpuG-21" value="Просмотреть" style="strokeWidth=1;shadow=0;dashed=0;align=center;html=1;shape=mxgraph.mockup.buttons.button;strokeColor=#666666;fontColor=#ffffff;mainText=;buttonStyle=round;fontSize=17;fontStyle=1;fillColor=#008cff;whiteSpace=wrap;" parent="1" vertex="1">
          <mxGeometry x="3420" y="310" width="110" height="80" as="geometry" />
        </mxCell>
        <mxCell id="joloTA6rOyIPzkMrVpuG-22" value="" style="rounded=0;whiteSpace=wrap;html=1;" parent="1" vertex="1">
          <mxGeometry x="2750" y="450" width="800" height="140" as="geometry" />
        </mxCell>
        <mxCell id="joloTA6rOyIPzkMrVpuG-25" value="Просмотреть" style="strokeWidth=1;shadow=0;dashed=0;align=center;html=1;shape=mxgraph.mockup.buttons.button;strokeColor=#666666;fontColor=#ffffff;mainText=;buttonStyle=round;fontSize=17;fontStyle=1;fillColor=#008cff;whiteSpace=wrap;" parent="1" vertex="1">
          <mxGeometry x="3420" y="480" width="110" height="80" as="geometry" />
        </mxCell>
        <mxCell id="joloTA6rOyIPzkMrVpuG-26" value="" style="rounded=0;whiteSpace=wrap;html=1;" parent="1" vertex="1">
          <mxGeometry x="2750" y="620" width="800" height="140" as="geometry" />
        </mxCell>
        <mxCell id="joloTA6rOyIPzkMrVpuG-29" value="Просмотреть" style="strokeWidth=1;shadow=0;dashed=0;align=center;html=1;shape=mxgraph.mockup.buttons.button;strokeColor=#666666;fontColor=#ffffff;mainText=;buttonStyle=round;fontSize=17;fontStyle=1;fillColor=#008cff;whiteSpace=wrap;" parent="1" vertex="1">
          <mxGeometry x="3420" y="650" width="110" height="80" as="geometry" />
        </mxCell>
        <mxCell id="joloTA6rOyIPzkMrVpuG-30" value="" style="rounded=0;whiteSpace=wrap;html=1;" parent="1" vertex="1">
          <mxGeometry x="2750" y="790" width="800" height="140" as="geometry" />
        </mxCell>
        <mxCell id="joloTA6rOyIPzkMrVpuG-33" value="Просмотреть" style="strokeWidth=1;shadow=0;dashed=0;align=center;html=1;shape=mxgraph.mockup.buttons.button;strokeColor=#666666;fontColor=#ffffff;mainText=;buttonStyle=round;fontSize=17;fontStyle=1;fillColor=#008cff;whiteSpace=wrap;" parent="1" vertex="1">
          <mxGeometry x="3420" y="820" width="110" height="80" as="geometry" />
        </mxCell>
        <mxCell id="joloTA6rOyIPzkMrVpuG-34" value="" style="rounded=0;whiteSpace=wrap;html=1;" parent="1" vertex="1">
          <mxGeometry x="2750" y="960" width="800" height="140" as="geometry" />
        </mxCell>
        <mxCell id="joloTA6rOyIPzkMrVpuG-37" value="Просмотреть" style="strokeWidth=1;shadow=0;dashed=0;align=center;html=1;shape=mxgraph.mockup.buttons.button;strokeColor=#666666;fontColor=#ffffff;mainText=;buttonStyle=round;fontSize=17;fontStyle=1;fillColor=#008cff;whiteSpace=wrap;" parent="1" vertex="1">
          <mxGeometry x="3420" y="990" width="110" height="80" as="geometry" />
        </mxCell>
        <mxCell id="joloTA6rOyIPzkMrVpuG-38" value="" style="rounded=0;whiteSpace=wrap;html=1;" parent="1" vertex="1">
          <mxGeometry x="2750" y="1130" width="800" height="140" as="geometry" />
        </mxCell>
        <mxCell id="joloTA6rOyIPzkMrVpuG-41" value="Просмотреть" style="strokeWidth=1;shadow=0;dashed=0;align=center;html=1;shape=mxgraph.mockup.buttons.button;strokeColor=#666666;fontColor=#ffffff;mainText=;buttonStyle=round;fontSize=17;fontStyle=1;fillColor=#008cff;whiteSpace=wrap;" parent="1" vertex="1">
          <mxGeometry x="3420" y="1160" width="110" height="80" as="geometry" />
        </mxCell>
        <mxCell id="joloTA6rOyIPzkMrVpuG-45" value="&lt;span style=&quot;font-size: 44px;&quot;&gt;Название&lt;/span&gt;" style="text;html=1;strokeColor=none;fillColor=none;align=center;verticalAlign=middle;whiteSpace=wrap;rounded=0;" parent="1" vertex="1">
          <mxGeometry x="2910" y="305" width="470" height="30" as="geometry" />
        </mxCell>
        <mxCell id="joloTA6rOyIPzkMrVpuG-46" value="&lt;span style=&quot;font-size: 44px;&quot;&gt;Название&lt;/span&gt;" style="text;html=1;strokeColor=none;fillColor=none;align=center;verticalAlign=middle;whiteSpace=wrap;rounded=0;" parent="1" vertex="1">
          <mxGeometry x="2920" y="485" width="470" height="30" as="geometry" />
        </mxCell>
        <mxCell id="joloTA6rOyIPzkMrVpuG-47" value="&lt;font style=&quot;font-size: 44px;&quot;&gt;Дата&lt;/font&gt;" style="text;html=1;strokeColor=none;fillColor=none;align=center;verticalAlign=middle;whiteSpace=wrap;rounded=0;" parent="1" vertex="1">
          <mxGeometry x="2760" y="510" width="160" height="30" as="geometry" />
        </mxCell>
        <mxCell id="joloTA6rOyIPzkMrVpuG-48" value="&lt;span style=&quot;font-size: 44px;&quot;&gt;Название&lt;/span&gt;" style="text;html=1;strokeColor=none;fillColor=none;align=center;verticalAlign=middle;whiteSpace=wrap;rounded=0;" parent="1" vertex="1">
          <mxGeometry x="2920" y="640" width="470" height="30" as="geometry" />
        </mxCell>
        <mxCell id="joloTA6rOyIPzkMrVpuG-49" value="&lt;font style=&quot;font-size: 44px;&quot;&gt;Дата&lt;/font&gt;" style="text;html=1;strokeColor=none;fillColor=none;align=center;verticalAlign=middle;whiteSpace=wrap;rounded=0;" parent="1" vertex="1">
          <mxGeometry x="2760" y="665" width="160" height="30" as="geometry" />
        </mxCell>
        <mxCell id="joloTA6rOyIPzkMrVpuG-50" value="&lt;span style=&quot;font-size: 44px;&quot;&gt;Название&lt;/span&gt;" style="text;html=1;strokeColor=none;fillColor=none;align=center;verticalAlign=middle;whiteSpace=wrap;rounded=0;" parent="1" vertex="1">
          <mxGeometry x="2920" y="820" width="470" height="30" as="geometry" />
        </mxCell>
        <mxCell id="joloTA6rOyIPzkMrVpuG-51" value="&lt;font style=&quot;font-size: 44px;&quot;&gt;Дата&lt;/font&gt;" style="text;html=1;strokeColor=none;fillColor=none;align=center;verticalAlign=middle;whiteSpace=wrap;rounded=0;" parent="1" vertex="1">
          <mxGeometry x="2760" y="845" width="160" height="30" as="geometry" />
        </mxCell>
        <mxCell id="joloTA6rOyIPzkMrVpuG-52" value="&lt;span style=&quot;font-size: 44px;&quot;&gt;Название&lt;/span&gt;" style="text;html=1;strokeColor=none;fillColor=none;align=center;verticalAlign=middle;whiteSpace=wrap;rounded=0;" parent="1" vertex="1">
          <mxGeometry x="2920" y="995" width="470" height="30" as="geometry" />
        </mxCell>
        <mxCell id="joloTA6rOyIPzkMrVpuG-53" value="&lt;font style=&quot;font-size: 44px;&quot;&gt;Дата&lt;/font&gt;" style="text;html=1;strokeColor=none;fillColor=none;align=center;verticalAlign=middle;whiteSpace=wrap;rounded=0;" parent="1" vertex="1">
          <mxGeometry x="2760" y="1020" width="160" height="30" as="geometry" />
        </mxCell>
        <mxCell id="joloTA6rOyIPzkMrVpuG-54" value="&lt;span style=&quot;font-size: 44px;&quot;&gt;Название&lt;/span&gt;" style="text;html=1;strokeColor=none;fillColor=none;align=center;verticalAlign=middle;whiteSpace=wrap;rounded=0;" parent="1" vertex="1">
          <mxGeometry x="2920" y="1160" width="470" height="30" as="geometry" />
        </mxCell>
        <mxCell id="joloTA6rOyIPzkMrVpuG-55" value="&lt;font style=&quot;font-size: 44px;&quot;&gt;Дата&lt;/font&gt;" style="text;html=1;strokeColor=none;fillColor=none;align=center;verticalAlign=middle;whiteSpace=wrap;rounded=0;" parent="1" vertex="1">
          <mxGeometry x="2760" y="1185" width="160" height="30" as="geometry" />
        </mxCell>
        <mxCell id="joloTA6rOyIPzkMrVpuG-57" value="Диагноз&lt;br&gt;стоимость&amp;nbsp;&lt;br&gt;рекомендации&lt;br&gt;тип&lt;br&gt;Направление&lt;br&gt;" style="strokeWidth=1;shadow=0;dashed=0;align=center;html=1;shape=mxgraph.mockup.text.bulletedList;textColor=#666666;mainText=,,,,;textSize=17;bulletStyle=none;strokeColor=none;fillColor=none;align=left;verticalAlign=top;fontSize=44;fontColor=#666666;" parent="1" vertex="1">
          <mxGeometry x="3650" y="610" width="790" height="270" as="geometry" />
        </mxCell>
        <mxCell id="joloTA6rOyIPzkMrVpuG-58" value="&lt;font style=&quot;font-size: 56px;&quot;&gt;Информация о приёме&lt;/font&gt;" style="text;html=1;strokeColor=none;fillColor=none;align=center;verticalAlign=middle;whiteSpace=wrap;rounded=0;" parent="1" vertex="1">
          <mxGeometry x="3720" y="70" width="660" height="80" as="geometry" />
        </mxCell>
        <mxCell id="joloTA6rOyIPzkMrVpuG-59" value="&lt;font style=&quot;font-size: 44px;&quot;&gt;Имя врача&lt;/font&gt;" style="text;html=1;strokeColor=none;fillColor=none;align=left;verticalAlign=middle;whiteSpace=wrap;rounded=0;" parent="1" vertex="1">
          <mxGeometry x="3654" y="320" width="350" height="150" as="geometry" />
        </mxCell>
        <mxCell id="joloTA6rOyIPzkMrVpuG-60" value="&lt;font style=&quot;font-size: 44px;&quot;&gt;Тип приёма&lt;/font&gt;" style="text;html=1;strokeColor=none;fillColor=none;align=left;verticalAlign=middle;whiteSpace=wrap;rounded=0;" parent="1" vertex="1">
          <mxGeometry x="3654" y="180" width="350" height="150" as="geometry" />
        </mxCell>
        <mxCell id="joloTA6rOyIPzkMrVpuG-63" value="" style="strokeColor=#999999;verticalLabelPosition=bottom;shadow=0;dashed=0;verticalAlign=top;strokeWidth=2;html=1;shape=mxgraph.mockup.misc.volumeIcon;" parent="1" vertex="1">
          <mxGeometry x="4144" y="410" width="180" height="180" as="geometry" />
        </mxCell>
        <mxCell id="joloTA6rOyIPzkMrVpuG-64" value="&lt;font style=&quot;font-size: 44px;&quot;&gt;Прослушать аудио сообщение&lt;/font&gt;" style="text;html=1;strokeColor=none;fillColor=none;align=center;verticalAlign=middle;whiteSpace=wrap;rounded=0;" parent="1" vertex="1">
          <mxGeometry x="4004" y="190" width="460" height="190" as="geometry" />
        </mxCell>
        <mxCell id="joloTA6rOyIPzkMrVpuG-65" value="&lt;font style=&quot;font-size: 44px;&quot;&gt;Дата&lt;/font&gt;" style="text;html=1;strokeColor=none;fillColor=none;align=left;verticalAlign=middle;whiteSpace=wrap;rounded=0;" parent="1" vertex="1">
          <mxGeometry x="3664" y="450" width="350" height="150" as="geometry" />
        </mxCell>
        <mxCell id="joloTA6rOyIPzkMrVpuG-85" value="" style="group" parent="1" vertex="1" connectable="0">
          <mxGeometry x="3647" y="1060.25" width="806" height="503.75" as="geometry" />
        </mxCell>
        <mxCell id="joloTA6rOyIPzkMrVpuG-75" value="" style="verticalLabelPosition=bottom;shadow=0;dashed=0;align=center;html=1;verticalAlign=top;strokeWidth=1;shape=mxgraph.mockup.graphics.simpleIcon;strokeColor=#999999;fillColor=#ffffff;" parent="joloTA6rOyIPzkMrVpuG-85" vertex="1">
          <mxGeometry width="201.5" height="201.5" as="geometry" />
        </mxCell>
        <mxCell id="joloTA6rOyIPzkMrVpuG-76" value="" style="verticalLabelPosition=bottom;shadow=0;dashed=0;align=center;html=1;verticalAlign=top;strokeWidth=1;shape=mxgraph.mockup.graphics.simpleIcon;strokeColor=#999999;fillColor=#ffffff;" parent="joloTA6rOyIPzkMrVpuG-85" vertex="1">
          <mxGeometry x="302.25" width="201.5" height="201.5" as="geometry" />
        </mxCell>
        <mxCell id="joloTA6rOyIPzkMrVpuG-77" value="" style="verticalLabelPosition=bottom;shadow=0;dashed=0;align=center;html=1;verticalAlign=top;strokeWidth=1;shape=mxgraph.mockup.graphics.simpleIcon;strokeColor=#999999;fillColor=#ffffff;" parent="joloTA6rOyIPzkMrVpuG-85" vertex="1">
          <mxGeometry x="604.5" width="201.5" height="201.5" as="geometry" />
        </mxCell>
        <mxCell id="joloTA6rOyIPzkMrVpuG-78" value="" style="verticalLabelPosition=bottom;shadow=0;dashed=0;align=center;html=1;verticalAlign=top;strokeWidth=1;shape=mxgraph.mockup.graphics.simpleIcon;strokeColor=#999999;fillColor=#ffffff;" parent="joloTA6rOyIPzkMrVpuG-85" vertex="1">
          <mxGeometry y="302.25" width="201.5" height="201.5" as="geometry" />
        </mxCell>
        <mxCell id="joloTA6rOyIPzkMrVpuG-79" value="" style="verticalLabelPosition=bottom;shadow=0;dashed=0;align=center;html=1;verticalAlign=top;strokeWidth=1;shape=mxgraph.mockup.graphics.simpleIcon;strokeColor=#999999;fillColor=#ffffff;" parent="joloTA6rOyIPzkMrVpuG-85" vertex="1">
          <mxGeometry x="302.25" y="302.25" width="201.5" height="201.5" as="geometry" />
        </mxCell>
        <mxCell id="joloTA6rOyIPzkMrVpuG-80" value="" style="verticalLabelPosition=bottom;shadow=0;dashed=0;align=center;html=1;verticalAlign=top;strokeWidth=1;shape=mxgraph.mockup.graphics.simpleIcon;strokeColor=#999999;fillColor=#ffffff;" parent="joloTA6rOyIPzkMrVpuG-85" vertex="1">
          <mxGeometry x="604.5" y="302.25" width="201.5" height="201.5" as="geometry" />
        </mxCell>
        <mxCell id="joloTA6rOyIPzkMrVpuG-86" value="&lt;span style=&quot;font-size: 44px;&quot;&gt;Прикреплённые изображения&lt;/span&gt;" style="text;html=1;strokeColor=none;fillColor=none;align=left;verticalAlign=middle;whiteSpace=wrap;rounded=0;" parent="1" vertex="1">
          <mxGeometry x="3647" y="945" width="643" height="80" as="geometry" />
        </mxCell>
        <mxCell id="joloTA6rOyIPzkMrVpuG-87" value="" style="strokeWidth=1;shadow=0;dashed=0;align=center;html=1;shape=mxgraph.mockup.rrect;rSize=10;fillColor=#ffffff;strokeColor=#666666;" parent="1" vertex="1">
          <mxGeometry x="4610" y="50" width="700" height="169" as="geometry" />
        </mxCell>
        <mxCell id="joloTA6rOyIPzkMrVpuG-88" value="&lt;font style=&quot;font-size: 40px;&quot;&gt;Динамика здоровья&lt;/font&gt;" style="strokeColor=#006EAF;fillColor=#1ba1e2;strokeWidth=1;shadow=0;dashed=0;align=center;html=1;shape=mxgraph.mockup.rrect;rSize=0;fontSize=17;fontColor=#ffffff;fontStyle=1;resizeHeight=1;whiteSpace=wrap;" parent="joloTA6rOyIPzkMrVpuG-87" vertex="1">
          <mxGeometry width="350" height="169" relative="1" as="geometry">
            <mxPoint x="350" as="offset" />
          </mxGeometry>
        </mxCell>
        <mxCell id="joloTA6rOyIPzkMrVpuG-89" value="&lt;font style=&quot;font-size: 44px;&quot; color=&quot;#0d0d0d&quot;&gt;История приёмов пациента&lt;/font&gt;" style="strokeWidth=1;shadow=0;dashed=0;align=center;html=1;shape=mxgraph.mockup.leftButton;rSize=10;fontSize=17;fontStyle=1;fillColor=#ffffff;strokeColor=#36393d;resizeHeight=1;whiteSpace=wrap;" parent="joloTA6rOyIPzkMrVpuG-87" vertex="1">
          <mxGeometry width="355" height="169" relative="1" as="geometry">
            <mxPoint x="-5" as="offset" />
          </mxGeometry>
        </mxCell>
        <mxCell id="joloTA6rOyIPzkMrVpuG-117" value="" style="verticalLabelPosition=bottom;shadow=0;dashed=0;align=center;html=1;verticalAlign=top;strokeWidth=1;shape=mxgraph.mockup.graphics.pieChart;strokeColor=#008cff;parts=10,20,35;partColors=#e0e0e0,#d0d0d0,#c0c0c0,#b0b0b0,#a0a0a0;strokeWidth=2;" parent="1" vertex="1">
          <mxGeometry x="4600" y="300" width="360" height="360" as="geometry" />
        </mxCell>
        <mxCell id="joloTA6rOyIPzkMrVpuG-118" value="" style="verticalLabelPosition=bottom;shadow=0;dashed=0;align=center;html=1;verticalAlign=top;strokeWidth=1;shape=mxgraph.mockup.graphics.columnChart;strokeColor=none;strokeColor2=none;strokeColor3=#666666;fillColor2=#008cff;fillColor3=#dddddd;" parent="1" vertex="1">
          <mxGeometry x="4580" y="770" width="660" height="330" as="geometry" />
        </mxCell>
        <mxCell id="joloTA6rOyIPzkMrVpuG-119" value="" style="verticalLabelPosition=bottom;shadow=0;dashed=0;align=center;html=1;verticalAlign=top;strokeWidth=1;shape=mxgraph.mockup.graphics.lineChart;strokeColor=none;strokeColor2=#666666;strokeColor3=#008cff;strokeColor4=#dddddd;" parent="1" vertex="1">
          <mxGeometry x="4580" y="1180" width="660" height="330" as="geometry" />
        </mxCell>
      </root>
    </mxGraphModel>
  </diagram>
  <diagram id="ftBQ3gsUHg9sCe0s3nVh" name="Новый приём">
    <mxGraphModel dx="112" dy="-485" grid="1" gridSize="10" guides="1" tooltips="1" connect="1" arrows="1" fold="1" page="1" pageScale="1" pageWidth="900" pageHeight="1600" math="0" shadow="0">
      <root>
        <mxCell id="0" />
        <mxCell id="1" parent="0" />
        <mxCell id="-0U5bIkCCztLXtuXOigj-1" value="" style="rounded=0;whiteSpace=wrap;html=1;fillColor=none;" vertex="1" parent="1">
          <mxGeometry x="1800" y="1600" width="900" height="3200" as="geometry" />
        </mxCell>
        <mxCell id="-0U5bIkCCztLXtuXOigj-2" value="Название" style="strokeWidth=1;shadow=0;dashed=0;align=center;html=1;shape=mxgraph.mockup.forms.anchor;align=right;spacingRight=2;fontColor=#E6E6E6;fontSize=40;" vertex="1" parent="1">
          <mxGeometry x="1880" y="1730" width="250" height="38.4" as="geometry" />
        </mxCell>
        <mxCell id="-0U5bIkCCztLXtuXOigj-3" value="цена" style="strokeWidth=1;shadow=0;dashed=0;align=center;html=1;shape=mxgraph.mockup.forms.anchor;align=right;spacingRight=2;fontColor=#E6E6E6;fontSize=40;" vertex="1" parent="1">
          <mxGeometry x="1880" y="1804.67" width="250" height="38.4" as="geometry" />
        </mxCell>
        <mxCell id="-0U5bIkCCztLXtuXOigj-4" value="дата" style="strokeWidth=1;shadow=0;dashed=0;align=center;html=1;shape=mxgraph.mockup.forms.anchor;align=right;spacingRight=2;fontColor=#E6E6E6;fontSize=40;" vertex="1" parent="1">
          <mxGeometry x="1880" y="1879.33" width="250" height="38.4" as="geometry" />
        </mxCell>
        <mxCell id="-0U5bIkCCztLXtuXOigj-5" value="Lorem ipsum dolor sit amet, consectetur adipisicing elit, sed do eiusmod tempor incididunt ut labore et dolore magna aliqua.&amp;nbsp;" style="strokeWidth=1;shadow=0;dashed=0;align=center;html=1;shape=mxgraph.mockup.forms.rrect;fillColor=#ffffff;rSize=0;fontColor=#666666;align=left;spacingLeft=3;strokeColor=#999999;verticalAlign=top;whiteSpace=wrap;fontSize=40;" vertex="1" parent="1">
          <mxGeometry x="1860" y="2285" width="760" height="180" as="geometry" />
        </mxCell>
        <mxCell id="-0U5bIkCCztLXtuXOigj-6" value="" style="group" vertex="1" connectable="0" parent="1">
          <mxGeometry x="2186.67" y="1730" width="473.33" height="430" as="geometry" />
        </mxCell>
        <mxCell id="-0U5bIkCCztLXtuXOigj-7" value="замена очков" style="strokeWidth=1;shadow=0;dashed=0;align=center;html=1;shape=mxgraph.mockup.forms.rrect;fillColor=#ffffff;rSize=0;fontColor=#666666;align=left;spacingLeft=3;strokeColor=#999999;fontSize=40;" vertex="1" parent="-0U5bIkCCztLXtuXOigj-6">
          <mxGeometry x="-52" width="473.33000000000004" height="38.40037974683542" as="geometry" />
        </mxCell>
        <mxCell id="-0U5bIkCCztLXtuXOigj-8" value="Greeting" style="strokeWidth=1;shadow=0;dashed=0;align=center;html=1;shape=mxgraph.mockup.forms.rrect;fillColor=#ffffff;rSize=0;fontColor=#666666;align=left;spacingLeft=3;strokeColor=#999999;fontSize=40;" vertex="1" parent="-0U5bIkCCztLXtuXOigj-6">
          <mxGeometry x="-52" y="74.66740506329118" width="473.33000000000004" height="38.40037974683542" as="geometry" />
        </mxCell>
        <mxCell id="-0U5bIkCCztLXtuXOigj-9" value="fred@jgraph.com" style="strokeWidth=1;shadow=0;dashed=0;align=center;html=1;shape=mxgraph.mockup.forms.rrect;fillColor=#ffffff;rSize=0;fontColor=#666666;align=left;spacingLeft=3;strokeColor=#999999;fontSize=40;" vertex="1" parent="-0U5bIkCCztLXtuXOigj-6">
          <mxGeometry x="-52" y="149.3348101265821" width="473.33000000000004" height="38.40037974683542" as="geometry" />
        </mxCell>
        <mxCell id="-0U5bIkCCztLXtuXOigj-10" value="" style="strokeWidth=1;shadow=0;dashed=0;align=right;html=1;shape=mxgraph.mockup.forms.rrect;rSize=0;strokeColor=#999999;fillColor=#ffffff;fontSize=36;" vertex="1" parent="-0U5bIkCCztLXtuXOigj-6">
          <mxGeometry x="-296.6700000000001" y="250" width="720" height="180" as="geometry" />
        </mxCell>
        <mxCell id="-0U5bIkCCztLXtuXOigj-11" value="Тип приёма" style="strokeWidth=1;shadow=0;dashed=0;align=left;html=1;shape=mxgraph.mockup.forms.rrect;rSize=0;strokeColor=#999999;fontColor=#008cff;fontSize=36;fillColor=#ffffff;resizeWidth=1;whiteSpace=wrap;" vertex="1" parent="-0U5bIkCCztLXtuXOigj-10">
          <mxGeometry width="720" height="50" relative="1" as="geometry">
            <mxPoint y="-21" as="offset" />
          </mxGeometry>
        </mxCell>
        <mxCell id="-0U5bIkCCztLXtuXOigj-12" value="Item 1" style="strokeWidth=1;shadow=0;dashed=0;align=center;html=1;shape=mxgraph.mockup.forms.anchor;fontSize=36;fontColor=#666666;align=left;spacingLeft=5;resizeWidth=1;whiteSpace=wrap;" vertex="1" parent="-0U5bIkCCztLXtuXOigj-10">
          <mxGeometry width="720" height="20" relative="1" as="geometry">
            <mxPoint y="30" as="offset" />
          </mxGeometry>
        </mxCell>
        <mxCell id="-0U5bIkCCztLXtuXOigj-13" value="Item 2" style="strokeWidth=1;shadow=0;dashed=0;align=center;html=1;shape=mxgraph.mockup.forms.anchor;fontSize=36;fontColor=#666666;align=left;spacingLeft=5;resizeWidth=1;whiteSpace=wrap;" vertex="1" parent="-0U5bIkCCztLXtuXOigj-10">
          <mxGeometry width="720" height="20" relative="1" as="geometry">
            <mxPoint y="60" as="offset" />
          </mxGeometry>
        </mxCell>
        <mxCell id="-0U5bIkCCztLXtuXOigj-14" value="Item 3" style="strokeWidth=1;shadow=0;dashed=0;align=right;html=1;shape=mxgraph.mockup.forms.rrect;rSize=0;fontSize=36;fontColor=#666666;align=left;spacingLeft=5;fillColor=#ddeeff;strokeColor=none;resizeWidth=1;whiteSpace=wrap;" vertex="1" parent="-0U5bIkCCztLXtuXOigj-10">
          <mxGeometry width="720" height="20" relative="1" as="geometry">
            <mxPoint y="90" as="offset" />
          </mxGeometry>
        </mxCell>
        <mxCell id="-0U5bIkCCztLXtuXOigj-15" value="Item 4" style="strokeWidth=1;shadow=0;dashed=0;align=right;html=1;shape=mxgraph.mockup.forms.anchor;fontSize=36;fontColor=#666666;align=left;spacingLeft=5;resizeWidth=1;whiteSpace=wrap;" vertex="1" parent="-0U5bIkCCztLXtuXOigj-10">
          <mxGeometry width="720" height="20" relative="1" as="geometry">
            <mxPoint y="124" as="offset" />
          </mxGeometry>
        </mxCell>
        <mxCell id="-0U5bIkCCztLXtuXOigj-16" value="&lt;font style=&quot;font-size: 56px;&quot;&gt;Новый приём&lt;/font&gt;" style="text;html=1;strokeColor=none;fillColor=none;align=center;verticalAlign=middle;whiteSpace=wrap;rounded=0;" vertex="1" parent="1">
          <mxGeometry x="1910" y="1610" width="660" height="80" as="geometry" />
        </mxCell>
        <mxCell id="-0U5bIkCCztLXtuXOigj-17" value="&lt;font style=&quot;font-size: 40px;&quot;&gt;Диагноз&lt;/font&gt;" style="text;html=1;strokeColor=none;fillColor=none;align=center;verticalAlign=middle;whiteSpace=wrap;rounded=0;" vertex="1" parent="1">
          <mxGeometry x="1830" y="2195" width="230" height="80" as="geometry" />
        </mxCell>
        <mxCell id="-0U5bIkCCztLXtuXOigj-18" value="Lorem ipsum dolor sit amet, consectetur adipisicing elit, sed do eiusmod tempor incididunt ut labore et dolore magna aliqua.&amp;nbsp;" style="strokeWidth=1;shadow=0;dashed=0;align=center;html=1;shape=mxgraph.mockup.forms.rrect;fillColor=#ffffff;rSize=0;fontColor=#666666;align=left;spacingLeft=3;strokeColor=#999999;verticalAlign=top;whiteSpace=wrap;fontSize=40;" vertex="1" parent="1">
          <mxGeometry x="1865" y="2572" width="755" height="180" as="geometry" />
        </mxCell>
        <mxCell id="-0U5bIkCCztLXtuXOigj-19" value="&lt;font style=&quot;font-size: 40px;&quot;&gt;Рекомендации&lt;/font&gt;" style="text;html=1;strokeColor=none;fillColor=none;align=center;verticalAlign=middle;whiteSpace=wrap;rounded=0;" vertex="1" parent="1">
          <mxGeometry x="1835" y="2482" width="325" height="80" as="geometry" />
        </mxCell>
        <mxCell id="-0U5bIkCCztLXtuXOigj-20" value="Lorem ipsum dolor sit amet, consectetur adipisicing elit, sed do eiusmod tempor incididunt ut labore et dolore magna aliqua.&amp;nbsp;" style="strokeWidth=1;shadow=0;dashed=0;align=center;html=1;shape=mxgraph.mockup.forms.rrect;fillColor=#ffffff;rSize=0;fontColor=#666666;align=left;spacingLeft=3;strokeColor=#999999;verticalAlign=top;whiteSpace=wrap;fontSize=40;" vertex="1" parent="1">
          <mxGeometry x="1865" y="2869" width="755" height="160" as="geometry" />
        </mxCell>
        <mxCell id="-0U5bIkCCztLXtuXOigj-21" value="&lt;font style=&quot;font-size: 40px;&quot;&gt;Направление&lt;/font&gt;" style="text;html=1;strokeColor=none;fillColor=none;align=center;verticalAlign=middle;whiteSpace=wrap;rounded=0;" vertex="1" parent="1">
          <mxGeometry x="1835" y="2779" width="325" height="80" as="geometry" />
        </mxCell>
        <mxCell id="-0U5bIkCCztLXtuXOigj-22" value="" style="strokeColor=#999999;verticalLabelPosition=bottom;shadow=0;dashed=0;verticalAlign=top;strokeWidth=2;html=1;shape=mxgraph.mockup.misc.volumeIcon;" vertex="1" parent="1">
          <mxGeometry x="2525" y="3075" width="105" height="105" as="geometry" />
        </mxCell>
        <mxCell id="-0U5bIkCCztLXtuXOigj-23" value="&lt;font style=&quot;font-size: 40px;&quot;&gt;Записать голосовое сообщение&lt;/font&gt;" style="text;html=1;strokeColor=none;fillColor=none;align=center;verticalAlign=middle;whiteSpace=wrap;rounded=0;" vertex="1" parent="1">
          <mxGeometry x="1867.5" y="3087.5" width="642.5" height="80" as="geometry" />
        </mxCell>
        <mxCell id="-0U5bIkCCztLXtuXOigj-24" value="&lt;font style=&quot;font-size: 40px;&quot;&gt;+&lt;/font&gt;" style="rounded=0;whiteSpace=wrap;html=1;" vertex="1" parent="1">
          <mxGeometry x="1850" y="3310" width="810" height="150" as="geometry" />
        </mxCell>
        <mxCell id="-0U5bIkCCztLXtuXOigj-25" value="&lt;font style=&quot;font-size: 40px;&quot;&gt;Прикрепить изображение&lt;/font&gt;" style="text;html=1;strokeColor=none;fillColor=none;align=left;verticalAlign=middle;whiteSpace=wrap;rounded=0;" vertex="1" parent="1">
          <mxGeometry x="1857.5" y="3220" width="642.5" height="80" as="geometry" />
        </mxCell>
        <mxCell id="-0U5bIkCCztLXtuXOigj-26" value="" style="verticalLabelPosition=bottom;shadow=0;dashed=0;align=center;html=1;verticalAlign=top;strokeWidth=1;shape=mxgraph.mockup.navigation.scrollBar;strokeColor=#999999;barPos=96.286;fillColor2=#99ddff;strokeColor2=none;direction=north;" vertex="1" parent="1">
          <mxGeometry x="2670" y="1640" width="20" height="3130" as="geometry" />
        </mxCell>
        <mxCell id="-0U5bIkCCztLXtuXOigj-27" value="&lt;font style=&quot;font-size: 40px;&quot;&gt;Рецепт&lt;/font&gt;" style="text;html=1;strokeColor=none;fillColor=none;align=left;verticalAlign=middle;whiteSpace=wrap;rounded=0;" vertex="1" parent="1">
          <mxGeometry x="1850" y="3524" width="642.5" height="80" as="geometry" />
        </mxCell>
        <mxCell id="-0U5bIkCCztLXtuXOigj-28" value="&lt;span style=&quot;font-size: 60px;&quot;&gt;+ Добавить препарат&lt;/span&gt;" style="strokeWidth=1;shadow=0;dashed=0;align=center;html=1;shape=mxgraph.mockup.buttons.button;strokeColor=#314354;fontColor=#ffffff;mainText=;buttonStyle=round;fontSize=17;fontStyle=1;fillColor=#647687;whiteSpace=wrap;" vertex="1" parent="1">
          <mxGeometry x="1925" y="3850" width="660" height="110" as="geometry" />
        </mxCell>
        <mxCell id="-0U5bIkCCztLXtuXOigj-29" value="" style="strokeWidth=1;shadow=0;dashed=0;align=right;html=1;shape=mxgraph.mockup.forms.rrect;rSize=0;strokeColor=#999999;fillColor=#ffffff;fontSize=36;" vertex="1" parent="1">
          <mxGeometry x="1840" y="3640" width="810" height="180" as="geometry" />
        </mxCell>
        <mxCell id="-0U5bIkCCztLXtuXOigj-30" value="Название&amp;nbsp; &amp;nbsp;| количество&amp;nbsp; &amp;nbsp; | дозировка" style="strokeWidth=1;shadow=0;dashed=0;align=left;html=1;shape=mxgraph.mockup.forms.rrect;rSize=0;strokeColor=#999999;fontColor=#008cff;fontSize=36;fillColor=#ffffff;resizeWidth=1;whiteSpace=wrap;" vertex="1" parent="-0U5bIkCCztLXtuXOigj-29">
          <mxGeometry width="809.9999999999999" height="50" relative="1" as="geometry">
            <mxPoint y="-21" as="offset" />
          </mxGeometry>
        </mxCell>
        <mxCell id="-0U5bIkCCztLXtuXOigj-31" value="Item 1&amp;nbsp; &amp;nbsp; &amp;nbsp; &amp;nbsp; &amp;nbsp;1 шт&amp;nbsp; &amp;nbsp; &amp;nbsp; &amp;nbsp; &amp;nbsp; &amp;nbsp; &amp;nbsp; &amp;nbsp; &amp;nbsp; &amp;nbsp; 5 раз \ день" style="strokeWidth=1;shadow=0;dashed=0;align=center;html=1;shape=mxgraph.mockup.forms.anchor;fontSize=36;fontColor=#666666;align=left;spacingLeft=5;resizeWidth=1;whiteSpace=wrap;" vertex="1" parent="-0U5bIkCCztLXtuXOigj-29">
          <mxGeometry width="809.9999999999999" height="20" relative="1" as="geometry">
            <mxPoint y="30" as="offset" />
          </mxGeometry>
        </mxCell>
        <mxCell id="-0U5bIkCCztLXtuXOigj-32" value="Item 2" style="strokeWidth=1;shadow=0;dashed=0;align=center;html=1;shape=mxgraph.mockup.forms.anchor;fontSize=36;fontColor=#666666;align=left;spacingLeft=5;resizeWidth=1;whiteSpace=wrap;" vertex="1" parent="-0U5bIkCCztLXtuXOigj-29">
          <mxGeometry width="809.9999999999999" height="20" relative="1" as="geometry">
            <mxPoint y="60" as="offset" />
          </mxGeometry>
        </mxCell>
        <mxCell id="-0U5bIkCCztLXtuXOigj-33" value="Item 3" style="strokeWidth=1;shadow=0;dashed=0;align=right;html=1;shape=mxgraph.mockup.forms.rrect;rSize=0;fontSize=36;fontColor=#666666;align=left;spacingLeft=5;fillColor=#ddeeff;strokeColor=none;resizeWidth=1;whiteSpace=wrap;" vertex="1" parent="-0U5bIkCCztLXtuXOigj-29">
          <mxGeometry width="809.9999999999999" height="20" relative="1" as="geometry">
            <mxPoint y="90" as="offset" />
          </mxGeometry>
        </mxCell>
        <mxCell id="-0U5bIkCCztLXtuXOigj-34" value="Item 4" style="strokeWidth=1;shadow=0;dashed=0;align=right;html=1;shape=mxgraph.mockup.forms.anchor;fontSize=36;fontColor=#666666;align=left;spacingLeft=5;resizeWidth=1;whiteSpace=wrap;" vertex="1" parent="-0U5bIkCCztLXtuXOigj-29">
          <mxGeometry width="809.9999999999999" height="20" relative="1" as="geometry">
            <mxPoint y="124" as="offset" />
          </mxGeometry>
        </mxCell>
        <mxCell id="-0U5bIkCCztLXtuXOigj-35" value="&lt;font style=&quot;font-size: 60px;&quot;&gt;Закончить приём&lt;/font&gt;" style="strokeWidth=1;shadow=0;dashed=0;align=center;html=1;shape=mxgraph.mockup.buttons.button;strokeColor=#6D1F00;fontColor=#ffffff;mainText=;buttonStyle=round;fontSize=17;fontStyle=1;fillColor=#a0522d;whiteSpace=wrap;" vertex="1" parent="1">
          <mxGeometry x="1920" y="4130" width="660" height="110" as="geometry" />
        </mxCell>
      </root>
    </mxGraphModel>
  </diagram>
  <diagram id="lqEwe8DTDPHFPmBUog3-" name="поиск препаратов">
    <mxGraphModel dx="3036" dy="144" grid="1" gridSize="10" guides="1" tooltips="1" connect="1" arrows="1" fold="1" page="1" pageScale="1" pageWidth="900" pageHeight="1600" math="0" shadow="0">
      <root>
        <mxCell id="0" />
        <mxCell id="1" parent="0" />
        <mxCell id="XY7Ir9YiKVH4oRcFkY8O-1" value="Поиск препаратов" style="text;html=1;strokeColor=none;fillColor=none;align=center;verticalAlign=middle;whiteSpace=wrap;rounded=0;fontSize=44;" vertex="1" parent="1">
          <mxGeometry x="2825" y="3240" width="660" height="80" as="geometry" />
        </mxCell>
        <mxCell id="XY7Ir9YiKVH4oRcFkY8O-2" value="Search" style="strokeWidth=1;shadow=0;dashed=0;align=center;html=1;shape=mxgraph.mockup.forms.searchBox;strokeColor=#999999;mainText=;strokeColor2=#008cff;fontColor=#666666;fontSize=60;align=left;spacingLeft=3;whiteSpace=wrap;container=1;" vertex="1" parent="1">
          <mxGeometry x="2770" y="3320" width="800" height="130" as="geometry" />
        </mxCell>
        <mxCell id="XY7Ir9YiKVH4oRcFkY8O-3" value="" style="group" vertex="1" connectable="0" parent="1">
          <mxGeometry x="2770" y="3470" width="800" height="140" as="geometry" />
        </mxCell>
        <mxCell id="XY7Ir9YiKVH4oRcFkY8O-4" value="" style="rounded=0;whiteSpace=wrap;html=1;" vertex="1" parent="XY7Ir9YiKVH4oRcFkY8O-3">
          <mxGeometry width="800" height="140" as="geometry" />
        </mxCell>
        <mxCell id="XY7Ir9YiKVH4oRcFkY8O-5" value="Добавить" style="strokeWidth=1;shadow=0;dashed=0;align=center;html=1;shape=mxgraph.mockup.buttons.button;strokeColor=#666666;fontColor=#ffffff;mainText=;buttonStyle=round;fontSize=17;fontStyle=1;fillColor=#008cff;whiteSpace=wrap;" vertex="1" parent="XY7Ir9YiKVH4oRcFkY8O-3">
          <mxGeometry x="670" y="30" width="110" height="80" as="geometry" />
        </mxCell>
        <mxCell id="XY7Ir9YiKVH4oRcFkY8O-6" value="&lt;span style=&quot;font-size: 44px;&quot;&gt;Название&lt;/span&gt;" style="text;html=1;strokeColor=none;fillColor=none;align=center;verticalAlign=middle;whiteSpace=wrap;rounded=0;" vertex="1" parent="XY7Ir9YiKVH4oRcFkY8O-3">
          <mxGeometry x="10" y="55" width="240" height="30" as="geometry" />
        </mxCell>
        <mxCell id="XY7Ir9YiKVH4oRcFkY8O-7" value="" style="group" vertex="1" connectable="0" parent="1">
          <mxGeometry x="2770" y="3660" width="800" height="140" as="geometry" />
        </mxCell>
        <mxCell id="XY7Ir9YiKVH4oRcFkY8O-8" value="" style="rounded=0;whiteSpace=wrap;html=1;" vertex="1" parent="XY7Ir9YiKVH4oRcFkY8O-7">
          <mxGeometry width="800" height="140" as="geometry" />
        </mxCell>
        <mxCell id="XY7Ir9YiKVH4oRcFkY8O-9" value="Добавить" style="strokeWidth=1;shadow=0;dashed=0;align=center;html=1;shape=mxgraph.mockup.buttons.button;strokeColor=#666666;fontColor=#ffffff;mainText=;buttonStyle=round;fontSize=17;fontStyle=1;fillColor=#008cff;whiteSpace=wrap;" vertex="1" parent="XY7Ir9YiKVH4oRcFkY8O-7">
          <mxGeometry x="670" y="30" width="110" height="80" as="geometry" />
        </mxCell>
        <mxCell id="XY7Ir9YiKVH4oRcFkY8O-10" value="&lt;span style=&quot;font-size: 44px;&quot;&gt;Название&lt;/span&gt;" style="text;html=1;strokeColor=none;fillColor=none;align=center;verticalAlign=middle;whiteSpace=wrap;rounded=0;" vertex="1" parent="XY7Ir9YiKVH4oRcFkY8O-7">
          <mxGeometry x="10" y="55" width="240" height="30" as="geometry" />
        </mxCell>
        <mxCell id="XY7Ir9YiKVH4oRcFkY8O-11" value="" style="group" vertex="1" connectable="0" parent="1">
          <mxGeometry x="2774" y="3840" width="800" height="140" as="geometry" />
        </mxCell>
        <mxCell id="XY7Ir9YiKVH4oRcFkY8O-12" value="" style="rounded=0;whiteSpace=wrap;html=1;" vertex="1" parent="XY7Ir9YiKVH4oRcFkY8O-11">
          <mxGeometry width="800" height="140" as="geometry" />
        </mxCell>
        <mxCell id="XY7Ir9YiKVH4oRcFkY8O-13" value="Добавить" style="strokeWidth=1;shadow=0;dashed=0;align=center;html=1;shape=mxgraph.mockup.buttons.button;strokeColor=#666666;fontColor=#ffffff;mainText=;buttonStyle=round;fontSize=17;fontStyle=1;fillColor=#008cff;whiteSpace=wrap;" vertex="1" parent="XY7Ir9YiKVH4oRcFkY8O-11">
          <mxGeometry x="670" y="30" width="110" height="80" as="geometry" />
        </mxCell>
        <mxCell id="XY7Ir9YiKVH4oRcFkY8O-14" value="&lt;span style=&quot;font-size: 44px;&quot;&gt;Название&lt;/span&gt;" style="text;html=1;strokeColor=none;fillColor=none;align=center;verticalAlign=middle;whiteSpace=wrap;rounded=0;" vertex="1" parent="XY7Ir9YiKVH4oRcFkY8O-11">
          <mxGeometry x="10" y="55" width="240" height="30" as="geometry" />
        </mxCell>
        <mxCell id="XY7Ir9YiKVH4oRcFkY8O-15" value="" style="group" vertex="1" connectable="0" parent="1">
          <mxGeometry x="2770" y="4010" width="800" height="140" as="geometry" />
        </mxCell>
        <mxCell id="XY7Ir9YiKVH4oRcFkY8O-16" value="" style="rounded=0;whiteSpace=wrap;html=1;" vertex="1" parent="XY7Ir9YiKVH4oRcFkY8O-15">
          <mxGeometry width="800" height="140" as="geometry" />
        </mxCell>
        <mxCell id="XY7Ir9YiKVH4oRcFkY8O-17" value="Добавить" style="strokeWidth=1;shadow=0;dashed=0;align=center;html=1;shape=mxgraph.mockup.buttons.button;strokeColor=#666666;fontColor=#ffffff;mainText=;buttonStyle=round;fontSize=17;fontStyle=1;fillColor=#008cff;whiteSpace=wrap;" vertex="1" parent="XY7Ir9YiKVH4oRcFkY8O-15">
          <mxGeometry x="670" y="30" width="110" height="80" as="geometry" />
        </mxCell>
        <mxCell id="XY7Ir9YiKVH4oRcFkY8O-18" value="&lt;span style=&quot;font-size: 44px;&quot;&gt;Название&lt;/span&gt;" style="text;html=1;strokeColor=none;fillColor=none;align=center;verticalAlign=middle;whiteSpace=wrap;rounded=0;" vertex="1" parent="XY7Ir9YiKVH4oRcFkY8O-15">
          <mxGeometry x="10" y="55" width="240" height="30" as="geometry" />
        </mxCell>
        <mxCell id="XY7Ir9YiKVH4oRcFkY8O-19" value="" style="group" vertex="1" connectable="0" parent="1">
          <mxGeometry x="2770" y="4200" width="800" height="140" as="geometry" />
        </mxCell>
        <mxCell id="XY7Ir9YiKVH4oRcFkY8O-20" value="" style="rounded=0;whiteSpace=wrap;html=1;" vertex="1" parent="XY7Ir9YiKVH4oRcFkY8O-19">
          <mxGeometry width="800" height="140" as="geometry" />
        </mxCell>
        <mxCell id="XY7Ir9YiKVH4oRcFkY8O-21" value="Добавить" style="strokeWidth=1;shadow=0;dashed=0;align=center;html=1;shape=mxgraph.mockup.buttons.button;strokeColor=#666666;fontColor=#ffffff;mainText=;buttonStyle=round;fontSize=17;fontStyle=1;fillColor=#008cff;whiteSpace=wrap;" vertex="1" parent="XY7Ir9YiKVH4oRcFkY8O-19">
          <mxGeometry x="670" y="30" width="110" height="80" as="geometry" />
        </mxCell>
        <mxCell id="XY7Ir9YiKVH4oRcFkY8O-22" value="&lt;span style=&quot;font-size: 44px;&quot;&gt;Название&lt;/span&gt;" style="text;html=1;strokeColor=none;fillColor=none;align=center;verticalAlign=middle;whiteSpace=wrap;rounded=0;" vertex="1" parent="XY7Ir9YiKVH4oRcFkY8O-19">
          <mxGeometry x="10" y="55" width="240" height="30" as="geometry" />
        </mxCell>
        <mxCell id="XY7Ir9YiKVH4oRcFkY8O-23" value="" style="group" vertex="1" connectable="0" parent="1">
          <mxGeometry x="2774" y="4380" width="800" height="140" as="geometry" />
        </mxCell>
        <mxCell id="XY7Ir9YiKVH4oRcFkY8O-24" value="" style="rounded=0;whiteSpace=wrap;html=1;" vertex="1" parent="XY7Ir9YiKVH4oRcFkY8O-23">
          <mxGeometry width="800" height="140" as="geometry" />
        </mxCell>
        <mxCell id="XY7Ir9YiKVH4oRcFkY8O-25" value="Добавить" style="strokeWidth=1;shadow=0;dashed=0;align=center;html=1;shape=mxgraph.mockup.buttons.button;strokeColor=#666666;fontColor=#ffffff;mainText=;buttonStyle=round;fontSize=17;fontStyle=1;fillColor=#008cff;whiteSpace=wrap;" vertex="1" parent="XY7Ir9YiKVH4oRcFkY8O-23">
          <mxGeometry x="670" y="30" width="110" height="80" as="geometry" />
        </mxCell>
        <mxCell id="XY7Ir9YiKVH4oRcFkY8O-26" value="&lt;span style=&quot;font-size: 44px;&quot;&gt;Название&lt;/span&gt;" style="text;html=1;strokeColor=none;fillColor=none;align=center;verticalAlign=middle;whiteSpace=wrap;rounded=0;" vertex="1" parent="XY7Ir9YiKVH4oRcFkY8O-23">
          <mxGeometry x="10" y="55" width="240" height="30" as="geometry" />
        </mxCell>
        <mxCell id="XY7Ir9YiKVH4oRcFkY8O-27" value="" style="endArrow=classic;html=1;rounded=0;strokeWidth=5;" edge="1" parent="1">
          <mxGeometry width="50" height="50" relative="1" as="geometry">
            <mxPoint x="3510" y="3538.57" as="sourcePoint" />
            <mxPoint x="3710" y="3538.57" as="targetPoint" />
          </mxGeometry>
        </mxCell>
        <mxCell id="XY7Ir9YiKVH4oRcFkY8O-28" value="" style="strokeWidth=1;shadow=0;dashed=0;align=center;html=1;shape=mxgraph.mockup.containers.rrect;rSize=0;strokeColor=#666666;fontColor=#666666;fontSize=17;verticalAlign=top;whiteSpace=wrap;fillColor=#ffffff;spacingTop=32;" vertex="1" parent="1">
          <mxGeometry x="3740" y="3400" width="610" height="520" as="geometry" />
        </mxCell>
        <mxCell id="XY7Ir9YiKVH4oRcFkY8O-29" value="&lt;font style=&quot;font-size: 30px;&quot;&gt;Добавление препарата&lt;/font&gt;" style="strokeWidth=1;shadow=0;dashed=0;align=center;html=1;shape=mxgraph.mockup.containers.rrect;rSize=0;fontSize=17;fontColor=#666666;strokeColor=#666666;align=left;spacingLeft=8;fillColor=#ffffff;resizeWidth=1;whiteSpace=wrap;" vertex="1" parent="XY7Ir9YiKVH4oRcFkY8O-28">
          <mxGeometry width="610" height="30" relative="1" as="geometry" />
        </mxCell>
        <mxCell id="XY7Ir9YiKVH4oRcFkY8O-30" value="" style="shape=ellipse;strokeColor=#008cff;resizable=0;fillColor=none;html=1;" vertex="1" parent="XY7Ir9YiKVH4oRcFkY8O-29">
          <mxGeometry x="1" y="0.5" width="20" height="20" relative="1" as="geometry">
            <mxPoint x="-25" y="-10" as="offset" />
          </mxGeometry>
        </mxCell>
        <mxCell id="XY7Ir9YiKVH4oRcFkY8O-31" value="" style="strokeWidth=1;shadow=0;dashed=0;align=center;html=1;shape=mxgraph.mockup.containers.rrect;rSize=0;fontSize=16;fontColor=#666666;strokeColor=#c4c4c4;resizable=0;whiteSpace=wrap;fillColor=#ffffff;" vertex="1" parent="XY7Ir9YiKVH4oRcFkY8O-28">
          <mxGeometry x="0.5" y="1" width="120" height="25" relative="1" as="geometry">
            <mxPoint x="-60" y="-33" as="offset" />
          </mxGeometry>
        </mxCell>
        <mxCell id="XY7Ir9YiKVH4oRcFkY8O-32" value="" style="strokeWidth=1;shadow=0;dashed=0;align=center;html=1;shape=mxgraph.mockup.text.textBox;fontColor=#666666;align=left;fontSize=17;spacingLeft=4;spacingTop=-3;whiteSpace=wrap;strokeColor=#666666;mainText=" vertex="1" parent="XY7Ir9YiKVH4oRcFkY8O-28">
          <mxGeometry x="280" y="50" width="300" height="90" as="geometry" />
        </mxCell>
        <mxCell id="XY7Ir9YiKVH4oRcFkY8O-33" value="" style="strokeWidth=1;shadow=0;dashed=0;align=center;html=1;shape=mxgraph.mockup.text.textBox;fontColor=#666666;align=left;fontSize=17;spacingLeft=4;spacingTop=-3;whiteSpace=wrap;strokeColor=#666666;mainText=" vertex="1" parent="XY7Ir9YiKVH4oRcFkY8O-28">
          <mxGeometry x="30" y="250" width="550" height="180" as="geometry" />
        </mxCell>
        <mxCell id="XY7Ir9YiKVH4oRcFkY8O-34" value="&lt;font color=&quot;#0d0d0d&quot;&gt;&lt;span style=&quot;font-size: 40px;&quot;&gt;Описание&lt;/span&gt;&lt;/font&gt;" style="text;html=1;strokeColor=none;fillColor=none;align=center;verticalAlign=middle;whiteSpace=wrap;rounded=0;" vertex="1" parent="XY7Ir9YiKVH4oRcFkY8O-28">
          <mxGeometry x="10" y="190" width="240" height="50" as="geometry" />
        </mxCell>
        <mxCell id="XY7Ir9YiKVH4oRcFkY8O-35" value="&lt;font color=&quot;#0d0d0d&quot;&gt;&lt;span style=&quot;font-size: 40px;&quot;&gt;Дозировка&lt;/span&gt;&lt;/font&gt;" style="text;html=1;strokeColor=none;fillColor=none;align=center;verticalAlign=middle;whiteSpace=wrap;rounded=0;" vertex="1" parent="XY7Ir9YiKVH4oRcFkY8O-28">
          <mxGeometry x="20" y="70" width="240" height="50" as="geometry" />
        </mxCell>
        <mxCell id="XY7Ir9YiKVH4oRcFkY8O-36" value="Добавить" style="strokeWidth=1;shadow=0;dashed=0;align=center;html=1;shape=mxgraph.mockup.buttons.button;strokeColor=#666666;fontColor=#ffffff;mainText=;buttonStyle=round;fontSize=17;fontStyle=1;fillColor=#008cff;whiteSpace=wrap;" vertex="1" parent="XY7Ir9YiKVH4oRcFkY8O-28">
          <mxGeometry x="110" y="450" width="390" height="60" as="geometry" />
        </mxCell>
      </root>
    </mxGraphModel>
  </diagram>
</mxfile>
